<svg xmlns="http://www.w3.org/2000/svg" xmlns:xlink="http://www.w3.org/1999/xlink" viewBox="0 0 520.94 479.13"><defs><style>.cls-1{fill:url(#Nepojmenovaný_přechod_575);}.cls-2{fill:url(#Nepojmenovaný_přechod_571);}.cls-3{fill:url(#Nepojmenovaný_přechod_569);}.cls-4,.cls-5,.cls-51{fill:#fff;}.cls-18,.cls-4{opacity:0.2;}.cls-5{opacity:0.07;}.cls-6{fill:url(#Nepojmenovaný_přechod_569-2);}.cls-7{fill:url(#Nepojmenovaný_přechod_571-2);}.cls-8{fill:#ebebeb;}.cls-9{opacity:0.28;}.cls-10{fill:#868685;}.cls-10,.cls-11,.cls-12{opacity:0.43;}.cls-11,.cls-13{fill:#080a07;}.cls-12{fill:#6e6e6d;}.cls-13{opacity:0.11;}.cls-14{fill:url(#Nepojmenovaný_přechod_571-3);}.cls-15{fill:url(#Nepojmenovaný_přechod_151);}.cls-16{fill:url(#Nepojmenovaný_přechod_72);}.cls-17{fill:url(#Nepojmenovaný_přechod_164);}.cls-18,.cls-49{fill:#fffffc;}.cls-19{fill:url(#Nepojmenovaný_přechod_163);}.cls-20{fill:url(#Nepojmenovaný_přechod_151-2);}.cls-21{fill:url(#Nepojmenovaný_přechod_151-3);}.cls-22{fill:url(#Nepojmenovaný_přechod_151-4);}.cls-23{fill:url(#Nepojmenovaný_přechod_142);}.cls-24{fill:url(#Nepojmenovaný_přechod_78);}.cls-25{fill:#631959;}.cls-26{fill:url(#Nepojmenovaný_přechod_72-2);}.cls-27{fill:url(#Nepojmenovaný_přechod_43);}.cls-28{fill:url(#Nepojmenovaný_přechod_78-2);}.cls-29{fill:url(#Nepojmenovaný_přechod_72-3);}.cls-30{fill:url(#Nepojmenovaný_přechod_151-5);}.cls-31{fill:url(#Nepojmenovaný_přechod_151-6);}.cls-32{fill:url(#Nepojmenovaný_přechod_78-3);}.cls-33{fill:url(#Nepojmenovaný_přechod_78-4);}.cls-34{fill:url(#Nepojmenovaný_přechod_78-5);}.cls-35{fill:url(#Nepojmenovaný_přechod_78-6);}.cls-36{fill:url(#Nepojmenovaný_přechod_78-7);}.cls-37{fill:url(#Nepojmenovaný_přechod_78-8);}.cls-38{fill:url(#Nepojmenovaný_přechod_78-9);}.cls-39{fill:url(#Nepojmenovaný_přechod_78-10);}.cls-40{fill:url(#Nepojmenovaný_přechod_78-11);}.cls-41{fill:url(#Nepojmenovaný_přechod_78-12);}.cls-42{fill:url(#Nepojmenovaný_přechod_177);}.cls-43{fill:url(#Nepojmenovaný_přechod_72-4);}.cls-44{fill:url(#Nepojmenovaný_přechod_78-13);}.cls-45{fill:url(#Nepojmenovaný_přechod_72-5);}.cls-46{fill:#b63053;}.cls-46,.cls-47,.cls-49{opacity:0.4;}.cls-47{fill:#e5006b;}.cls-48{fill:url(#Nepojmenovaný_přechod_78-14);}.cls-50{fill:url(#Nepojmenovaný_přechod_72-6);}.cls-52{fill:#d72f27;}.cls-53{fill:#3960ac;}.cls-54{fill:#f9a61b;}.cls-55{fill:#078745;}</style><linearGradient id="Nepojmenovaný_přechod_575" x1="431.21" y1="200.55" x2="51.67" y2="235.98" gradientUnits="userSpaceOnUse"><stop offset="0" stop-color="#e85ea5"/><stop offset="1" stop-color="#f6b040"/></linearGradient><linearGradient id="Nepojmenovaný_přechod_571" x1="138.58" y1="409.75" x2="105.44" y2="558.32" gradientUnits="userSpaceOnUse"><stop offset="0" stop-color="#84d6d1"/><stop offset="1" stop-color="#0011d9"/></linearGradient><linearGradient id="Nepojmenovaný_přechod_569" x1="306.21" y1="259.02" x2="461.39" y2="217.77" gradientUnits="userSpaceOnUse"><stop offset="0" stop-color="#0011d9"/><stop offset="1" stop-color="#84d6d1"/></linearGradient><linearGradient id="Nepojmenovaný_přechod_569-2" x1="257.72" y1="358.83" x2="508.11" y2="287.58" xlink:href="#Nepojmenovaný_přechod_569"/><linearGradient id="Nepojmenovaný_přechod_571-2" x1="57.2" y1="244.79" x2="188.37" y2="396.62" xlink:href="#Nepojmenovaný_přechod_571"/><linearGradient id="Nepojmenovaný_přechod_571-3" x1="138.29" y1="409.69" x2="105.15" y2="558.26" xlink:href="#Nepojmenovaný_přechod_571"/><linearGradient id="Nepojmenovaný_přechod_151" x1="131.27" y1="193.24" x2="177.45" y2="193.24" gradientUnits="userSpaceOnUse"><stop offset="0" stop-color="#e84621"/><stop offset="1" stop-color="#f6a000"/></linearGradient><linearGradient id="Nepojmenovaný_přechod_72" x1="339.14" y1="402.56" x2="291.56" y2="404.28" gradientUnits="userSpaceOnUse"><stop offset="0" stop-color="#f4cab2"/><stop offset="1" stop-color="#d94336"/></linearGradient><linearGradient id="Nepojmenovaný_přechod_164" x1="220.38" y1="240.96" x2="350.35" y2="290.59" gradientUnits="userSpaceOnUse"><stop offset="0" stop-color="#9f0243"/><stop offset="1" stop-color="#d42e29"/></linearGradient><linearGradient id="Nepojmenovaný_přechod_163" x1="141.34" y1="270.51" x2="351.23" y2="151.69" gradientUnits="userSpaceOnUse"><stop offset="0.18" stop-color="#9f0243"/><stop offset="1" stop-color="#d42e29"/></linearGradient><linearGradient id="Nepojmenovaný_přechod_151-2" x1="154.75" y1="289.37" x2="231.66" y2="289.37" xlink:href="#Nepojmenovaný_přechod_151"/><linearGradient id="Nepojmenovaný_přechod_151-3" x1="181.59" y1="223.66" x2="239.59" y2="223.66" xlink:href="#Nepojmenovaný_přechod_151"/><linearGradient id="Nepojmenovaný_přechod_151-4" x1="67.49" y1="250.37" x2="196.75" y2="250.37" xlink:href="#Nepojmenovaný_přechod_151"/><linearGradient id="Nepojmenovaný_přechod_142" x1="140.95" y1="256.85" x2="166.54" y2="256.85" gradientTransform="matrix(0.08, 1.36, -1, 0.1, 391.54, 15.23)" gradientUnits="userSpaceOnUse"><stop offset="0" stop-color="#3f3870"/><stop offset="0.28" stop-color="#413870"/><stop offset="0.44" stop-color="#4a3872"/><stop offset="0.57" stop-color="#583774"/><stop offset="0.68" stop-color="#6c3778"/><stop offset="0.79" stop-color="#86367c"/><stop offset="0.89" stop-color="#a53582"/><stop offset="0.98" stop-color="#cb3388"/><stop offset="1" stop-color="#d6338a"/></linearGradient><linearGradient id="Nepojmenovaný_přechod_78" x1="96.11" y1="253.28" x2="107.02" y2="253.28" gradientUnits="userSpaceOnUse"><stop offset="0" stop-color="#3f3870"/><stop offset="1" stop-color="#d6338a"/></linearGradient><linearGradient id="Nepojmenovaný_přechod_72-2" x1="155.89" y1="218.89" x2="106.66" y2="242.99" xlink:href="#Nepojmenovaný_přechod_72"/><linearGradient id="Nepojmenovaný_přechod_43" x1="85.48" y1="174.73" x2="159.14" y2="174.73" gradientUnits="userSpaceOnUse"><stop offset="0" stop-color="#9f0243"/><stop offset="0.85" stop-color="#9f0243"/><stop offset="1" stop-color="#9f0243"/></linearGradient><linearGradient id="Nepojmenovaný_přechod_78-2" x1="158.68" y1="239.54" x2="318.76" y2="239.54" xlink:href="#Nepojmenovaný_přechod_78"/><linearGradient id="Nepojmenovaný_přechod_72-3" x1="331.55" y1="226.79" x2="272.82" y2="263.73" xlink:href="#Nepojmenovaný_přechod_72"/><linearGradient id="Nepojmenovaný_přechod_151-5" x1="333.59" y1="224.24" x2="432.37" y2="224.24" xlink:href="#Nepojmenovaný_přechod_151"/><linearGradient id="Nepojmenovaný_přechod_151-6" x1="323.52" y1="223.87" x2="415.73" y2="223.87" xlink:href="#Nepojmenovaný_přechod_151"/><linearGradient id="Nepojmenovaný_přechod_78-3" x1="318.73" y1="230.13" x2="323.54" y2="230.13" xlink:href="#Nepojmenovaný_přechod_78"/><linearGradient id="Nepojmenovaný_přechod_78-4" x1="337.29" y1="233.91" x2="393.69" y2="233.91" gradientTransform="translate(8.14 -12.26) rotate(1.94)" xlink:href="#Nepojmenovaný_přechod_78"/><linearGradient id="Nepojmenovaný_přechod_78-5" x1="337.38" y1="218.36" x2="393.61" y2="218.36" gradientTransform="translate(21.88 -33.03) rotate(5.33)" xlink:href="#Nepojmenovaný_přechod_78"/><linearGradient id="Nepojmenovaný_přechod_78-6" x1="341.17" y1="251.09" x2="352.21" y2="251.09" gradientTransform="translate(580.44 -107.52) rotate(87.18)" xlink:href="#Nepojmenovaný_přechod_78"/><linearGradient id="Nepojmenovaný_přechod_78-7" x1="359.09" y1="251.97" x2="370.12" y2="251.97" gradientTransform="translate(598.35 -124.58) rotate(87.18)" xlink:href="#Nepojmenovaný_přechod_78"/><linearGradient id="Nepojmenovaný_přechod_78-8" x1="377" y1="252" x2="388.04" y2="252" gradientTransform="translate(615.41 -142.44) rotate(87.18)" xlink:href="#Nepojmenovaný_přechod_78"/><linearGradient id="Nepojmenovaný_přechod_78-9" x1="377.04" y1="199.01" x2="387.99" y2="199.01" gradientTransform="translate(36.26 -57.95) rotate(9.09)" xlink:href="#Nepojmenovaný_přechod_78"/><linearGradient id="Nepojmenovaný_přechod_78-10" x1="359.13" y1="202.05" x2="370.08" y2="202.05" gradientTransform="translate(36.51 -55.08) rotate(9.09)" xlink:href="#Nepojmenovaný_přechod_78"/><linearGradient id="Nepojmenovaný_přechod_78-11" x1="341.22" y1="204.74" x2="352.17" y2="204.74" gradientTransform="translate(36.71 -52.22) rotate(9.09)" xlink:href="#Nepojmenovaný_přechod_78"/><linearGradient id="Nepojmenovaný_přechod_78-12" x1="217.17" y1="376.4" x2="224.77" y2="320.42" xlink:href="#Nepojmenovaný_přechod_78"/><linearGradient id="Nepojmenovaný_přechod_177" x1="120.34" y1="403.29" x2="167.92" y2="328.4" gradientUnits="userSpaceOnUse"><stop offset="0" stop-color="#3f3870"/><stop offset="0.29" stop-color="#663777"/><stop offset="0.92" stop-color="#ca3388"/><stop offset="1" stop-color="#d6338a"/></linearGradient><linearGradient id="Nepojmenovaný_přechod_72-4" x1="155.07" y1="338.2" x2="190.54" y2="425.17" xlink:href="#Nepojmenovaný_přechod_72"/><linearGradient id="Nepojmenovaný_přechod_78-13" x1="287.39" y1="433.93" x2="309.67" y2="322.21" xlink:href="#Nepojmenovaný_přechod_78"/><linearGradient id="Nepojmenovaný_přechod_72-5" x1="329.47" y1="115.82" x2="232.29" y2="115.82" xlink:href="#Nepojmenovaný_přechod_72"/><linearGradient id="Nepojmenovaný_přechod_78-14" x1="121.3" y1="103.93" x2="312.16" y2="103.93" xlink:href="#Nepojmenovaný_přechod_78"/><linearGradient id="Nepojmenovaný_přechod_72-6" x1="255.23" y1="40.27" x2="208.82" y2="101.69" xlink:href="#Nepojmenovaný_přechod_72"/></defs><g id="Vrstva_2" data-name="Vrstva 2"><g id="Vrstva_8" data-name="Vrstva 8"><circle class="cls-1" cx="241.44" cy="218.26" r="190.58"/><path class="cls-2" d="M229.86,435.78V438a4.35,4.35,0,0,1-2.15,3.75l-61.58,36.16a8.78,8.78,0,0,1-5.32,1.17l-13.26-1.34L131,476.08h0l-11.82-1.2-30-3L32,466.09a2.83,2.83,0,0,1-2.53-2.8v-2.17L66,448.67l20.12-6.84,7.92-2.7h0l11.09-3.78,10-3.39Z"/><path class="cls-3" d="M464.1,255.18c-.44,1.62-.87,3.12-1.3,4.5-1.24,4-2.34,7-2.86,8.48,3.43,5.49,1.32,9.2,1.32,9.2-5.22.86-7.88-1-7.88-1-50.3,34.72-136.13,46.31-136.13,46.31l-42.1-3.06-36.7-82.87s12.17-18.5,77.87-47.5a200.94,200.94,0,0,1,19.19-7.3,217.52,217.52,0,0,1,22.86-6h0c49.73-10.35,91.67-2,93.11-3.22,1.84-1.56,8.46-2.32,8.46-2.32s-.49,7.18-2.56,8.67C473,208.73,468.63,238.33,464.1,255.18Z"/><path class="cls-4" d="M464.1,255.18s3.19-41.93-21.37-63.18-64.15-16.14-84.35-16.07c49.73-10.35,91.67-2,93.11-3.22,1.84-1.56,8.46-2.32,8.46-2.32s-.49,7.18-2.56,8.67C473,208.73,468.63,238.33,464.1,255.18Z"/><path class="cls-5" d="M464.1,255.18c-.44,1.62-.87,3.12-1.3,4.5l-40.48-12.33s15.55-54.21-61.87-60.78c-12.12-1-20.1-2.63-24.94-4.6a217.52,217.52,0,0,1,22.86-6h0c49.73-10.35,91.67-2,93.11-3.22,1.84-1.56,8.46-2.32,8.46-2.32-.57,1.86-4.15,5.54-4.15,5.54l1.59,3.13C473,208.73,468.63,238.33,464.1,255.18Z"/><path class="cls-6" d="M514.7,284.52c6.39,52.3-23.78,88-29.55,94.91v0c1.43,7.25-.68,18.2-.68,18.2-5.92-1.19-16.2-10.17-16.2-10.17-26.38,6.52-56.67,7-83.82,5.18A504.51,504.51,0,0,1,307,381.23L263.32,361l-5.68-103.31s17.83-12.92,86.73-18.22c2.88-.23,5.84-.44,8.9-.63q3.28-.21,6.7-.39c81.86-4.41,148.41,37.86,151,37s10,.93,10,.93S517.51,283.76,514.7,284.52Z"/><path class="cls-7" d="M245.13,326.9S231.76,345,163.52,370.71c-42.59,16.07-85,15.1-111.37,12.46L50.84,383c-15.1-1.57-24.61-3.63-25.32-3.09-1.94,1.47-8.71,1.88-8.71,1.88s.91-7.25,3.08-8.65A196.61,196.61,0,0,1,8.58,341.24h0s0,0,0,0c-7.82-29.95-7-54.77-4.81-60.27C-.08,278.31,0,268.69,0,268.69a18.37,18.37,0,0,1,11.55-1c15.8-9.67,36.27-16.44,57.23-21.19l.06,0c11.64-2.64,23.43-4.65,34.65-6.19a547.22,547.22,0,0,1,66.54-5l42.52,5.45Z"/><path class="cls-5" d="M514.7,284.52c6.39,52.3-23.78,88-29.55,94.91v0c1.43,7.25-.68,18.2-.68,18.2h0c-.35-.24-6-4.2-7.64-13.82a50.37,50.37,0,0,1-8.54,3.66c-26.38,6.52-56.67,7-83.82,5.18,0,0,42.86-27.09,33.43-78.09S336,243,336,243l8.35-3.57c2.88-.23,5.84-.44,8.9-.63q3.28-.21,6.7-.39c81.86-4.41,148.41,37.86,151,37s10,.93,10,.93S517.51,283.76,514.7,284.52Z"/><path class="cls-5" d="M38.16,303.21c-9.86,31.29,5.14,68.78,14,80L50.84,383c-15.1-1.57-24.61-3.63-25.32-3.09a6.35,6.35,0,0,1-3.22-3.09,15.48,15.48,0,0,1-5.49,5s.91-7.25,3.08-8.65A196.61,196.61,0,0,1,8.58,341.24h0s0,0,0,0c-7.82-29.95-7-54.77-4.81-60.27C-.08,278.31,0,268.69,0,268.69a18.37,18.37,0,0,1,11.55-1c15.8-9.67,36.27-16.44,57.23-21.19l.06,0c11.64-2.64,23.43-4.65,34.65-6.19C77.59,250.85,48,271.92,38.16,303.21Z"/><path class="cls-4" d="M68.78,246.54c-18.72,6-40.33,15.75-51.19,38s-10,51.92-9.1,56.28c-7.74-29.8-7-54.45-4.73-59.93,0,0,1.13-4.68,2.26-6.49-5-2.43-6-5.74-6-5.74a18.37,18.37,0,0,1,11.55-1C27.35,258.06,47.82,251.29,68.78,246.54Z"/><path class="cls-4" d="M514.7,284.52c6.39,52.3-23.78,88-29.55,94.91.57-1,28-52.69,3.87-90.06S389,247.49,353.27,238.8q3.28-.21,6.7-.39c81.86-4.41,148.41,37.86,151,37s10,.93,10,.93-7.49,2.85-7.07,3.85A27.19,27.19,0,0,1,514.7,284.52Z"/><path class="cls-8" d="M229.86,435.78l-39.69,23.3-17.48,10.27-7.13,4.18a6.73,6.73,0,0,1-4.09.9l-4.42-.44h0l-14.74-1.48-16.54-1.67h0L114,469.64l-30-3-45.32-4.57-9.22-.93,12.1-4.78,23-9.11,19.32-7.64,7.61-3h0l10.65-4.22,13-5.12h0l4,.3,12.62.94,30,2.23,64.48,4.8Z"/><g class="cls-9"><polygon class="cls-10" points="113.95 469.64 83.97 466.62 64.58 447.23 83.9 439.59 86.14 441.83 113.95 469.64"/><polygon class="cls-11" points="125.76 470.83 113.95 469.64 86.14 441.83 83.9 439.59 91.51 436.58 94.06 439.13 125.76 470.83"/><polygon class="cls-12" points="142.31 472.5 125.77 470.83 125.76 470.83 94.07 439.13 94.06 439.13 91.52 436.58 102.17 432.36 142.31 472.5"/></g><polygon class="cls-13" points="190.17 459.08 172.69 469.35 131.82 428.48 161.8 430.71 190.17 459.08"/><path class="cls-14" d="M226.28,435.51l-107.08-8-4-.3h0l-13,5.12-10.65,4.22h0l-7.61,3-19.32,7.64-23,9.11-12.1,4.78,9.22.93L84,466.62l30,3,11.81,1.19h0l16.54,1.67L157.05,474h0l4.42.44a6.73,6.73,0,0,0,4.09-.9l64.3-37.75ZM166.2,468.9h-.11l-22.81-2.3h0L127,465l-41.34-4.16-38.47-3.88,63.53-25.47,108.41,8.06Z"/><polygon class="cls-15" points="120.56 178.63 153.87 183.15 166.52 192.86 166.73 202.29 149.8 207.86 135.66 199.29 120.56 178.63"/><path class="cls-16" d="M298.76,414.61s17.65,4.16,22.74,7.18,10.59-6.12,12-12.74-1-22.55-7.91-25.08-39.32,28.27-39.32,28.27Z"/><path class="cls-17" d="M344.45,312.57c-.87,2.58-2.08,6.51-3.95,10.74-5.44,12.37-16.48,27.36-41.17,19-33.15-11.25-27.79,2-48.6,4.86s-47.43-12.28-56-19.71-48.57-21.71-48.57-21.71L117,228l50.28-32.43L321,178.28l19.43,92.58s1.24,5.3,2.48,12.25C344.71,293.14,346.47,306.6,344.45,312.57Z"/><path class="cls-18" d="M344.45,312.57c-.87,2.58-2.08,6.51-3.95,10.74l-8.34-4s7.5-19.39-.43-30.86c-1.15-3.28,4.69-4.78,11.2-5.32C344.71,293.14,346.47,306.6,344.45,312.57Z"/><path class="cls-19" d="M366,224.57c0,38.86-8.29,51.43-18.72,61.14a32.84,32.84,0,0,1-12.15,7h0a46.56,46.56,0,0,1-26.42.52C297,290,290.3,281.14,288.87,277.57s-4.28-14.14,15-14.71c12.86.85,22.78-14.29,22.78-14.29s-5.35-37.43-14.49-37.14-4.29,24.57-2.57,30.28-41.14,17.15-63.43,16S186,265.14,186,265.14s-12.4-29.72-17.32-50a58.62,58.62,0,0,1-2-12.81c0-6.42-9.66-22.24-21.86-27.55-9.6-4.18-17.6-6.72-19.07-9.73-4.28,12,6.07-30.72,23.22-29.57a146,146,0,0,0,18.27-.2c13.1-.83,25.16-2.66,25.16-2.66l62.85-23.43s-3.54,6.23,31.39,6.66l3.9,0c32.14,0,41.14,2.46,53.86,23C352.7,152.09,366,195.57,366,224.57Z"/><path class="cls-20" d="M233.18,264.09s-15.06,1.12-18.7,12.69,3.09,24.74-4.89,39.79S123,322.68,123,322.68c-21-3.42,42.6-51.9,42.6-51.9l12-14.14,19.31-3.22Z"/><path class="cls-21" d="M181.59,183.15l35.71,5.57a24.61,24.61,0,0,1,11.26,9.42c4,6.72,5.74,15.86,6.16,31.29.24,9-.1,17-.54,23.13-.15,2-1.18-7.63,5.41-1.36,0,3.23-.11,6.34-2.22,9.34a9.68,9.68,0,0,1-4.37,3.63L195,260l-13.44-55.38Z"/><path class="cls-22" d="M92.16,186c-12.57,8-21.71,33.47-24,68-1.78,26.9.29,38.57,2.86,56,1.49,10.11,80.53,16.62,92.57,10,11.43-6.28,9.78-11.89,8.79-37.71a19.32,19.32,0,0,1,13.21-19.72A61.24,61.24,0,0,1,195,260c2.64-6,.84-20.94,1.13-25.95.57-9.71,3-40-9.14-48-8-5.24-13.86-5.66-21.43,0S151.24,205.43,143,197.72c-3.26-3.06-10.88-13.4-18.44-17.56S104.73,178,92.16,186Z"/><ellipse class="cls-23" cx="147" cy="250.85" rx="23.44" ry="17.34" transform="translate(-133.5 327.38) rotate(-74.89)"/><polygon class="cls-24" points="107.02 218.13 105.47 287 96.11 288.43 98.67 219.72 107.02 218.13"/><path class="cls-25" d="M102.87,195.57,102,210.86s4.07,5.33,5.89,7.27,14.68-17.88,14.68-17.88l5.25-1,.79-1.39,1-.82s-1.17-7-3.42-7.54-12.43,0-12.43,0Z"/><path class="cls-26" d="M106.52,207.32c-.13,8.17-5.65,26,3.64,40.05s28,12.07,28,12.07,2.41,8.69,8.15,14.53c2.89,2.94,5.38,2.94,5.52.48s-8.52-18.48-9.7-41.1c1.16-1,2.47-8.28,1.82-12.42-1.18-7.5-4.4-11.46-7-14.87s-9-10.34-11.08-12.56l-7.13-7.5L97,193S106.64,199.16,106.52,207.32Z"/><path class="cls-27" d="M159.14,181.71c-6.06-2.14-15.5,6.47-23.07,3.44-3.52-1.4-7.53-1.28-10.94-2.23,2.12,2.87,4.09,7.32,4.52,14.15-3.13-7.54-13.17-8-19.71-3.09a15.24,15.24,0,0,0-1.82,1.59c-5.07,5.23-5.76,15.69-2.31,20C79.86,201.49,82.9,168.72,92.21,155c6.57-9.72,16.57-11.86,28.86-9.57,11,2,10.78-9.65,22.9-11.3a24.09,24.09,0,0,1,4.81-.13c2.91.19,6.08.24,9.34.17Z"/><path class="cls-28" d="M318.76,245.41h0l-160,18.82s7.15-13.17,1.12-30.76l158.93-18.63Z"/><path class="cls-18" d="M366,224.57c0,38.86-8.29,51.43-18.72,61.14a32.84,32.84,0,0,1-12.15,7c7.37-3.4,12.21-8.52,16-13.39a38.46,38.46,0,0,0,6.7-13.43c1.07-3.69,3.54-18.76,2.86-35.8-.51-12.69-3.28-26.43-5.86-37.27-6-25.39-13.71-43.07-24-56.14s-38.2-11.86-38.2-11.86l-6-9.06,3.9,0c32.14,0,41.14,2.46,53.86,23C352.7,152.09,366,195.57,366,224.57Z"/><path class="cls-29" d="M298.45,272.43c-2.82-.75-3.36-5.07-12.15-6.14s-23.14-7-30.43-13.64c-3.76-3.43-1.79-6,.75-4.2s11.29,5.22,18.24,6.53-4.42-5.84-3.49-14.84,6.57-14.45,11.61-17.65,16.61-7.49,19.47-.92-1.29,19.29,4.85,23.84c3.3,2.44,6.65,1.86,6.86.59l9-1.11a28.56,28.56,0,0,1-3,6.68c-2.06,3.3,1.49,8.87,2.71,10s-1.57,7.29-6.85,9.72S305.73,274.36,298.45,272.43Z"/><path class="cls-30" d="M323.54,245.41s5.55,1.07,9.42,1.5,71.87.66,74.81.16,11.54.38,13.6-12.64c2.39-15,.33-29.58-6.9-31.82s-12.15-1.28-12.15-1.28"/><path class="cls-31" d="M323.52,214.84a39,39,0,0,1,9.67-3.39c17.29-3.1,54.12-8.62,69.88-10.2,2.76-.27,12.6-.2,12.66,21.32s-7,23.3-10.06,23.46c-16.36.87-50.15.43-70.47.14a110.55,110.55,0,0,1-11.66-.76Z"/><polygon class="cls-32" points="323.54 245.41 318.73 245.41 318.73 214.84 323.52 214.84 323.54 245.41"/><rect class="cls-33" x="337.28" y="228.84" width="56.43" height="10.14" rx="5.07" transform="translate(-7.72 12.52) rotate(-1.94)"/><rect class="cls-34" x="337.28" y="213.28" width="56.43" height="10.14" rx="5.07" transform="translate(-18.72 34.92) rotate(-5.33)"/><ellipse class="cls-35" cx="346.69" cy="251.09" rx="3.16" ry="5.52" transform="translate(78.87 585.03) rotate(-87.18)"/><ellipse class="cls-36" cx="364.61" cy="251.97" rx="3.16" ry="5.52" transform="translate(95.02 603.75) rotate(-87.18)"/><ellipse class="cls-37" cx="382.52" cy="252" rx="3.16" ry="5.52" transform="translate(112.02 621.67) rotate(-87.18)"/><ellipse class="cls-38" cx="382.52" cy="199.01" rx="5.52" ry="3.16" transform="translate(-26.64 62.95) rotate(-9.09)"/><ellipse class="cls-39" cx="364.61" cy="202.05" rx="5.52" ry="3.16" transform="translate(-27.35 60.16) rotate(-9.09)"/><ellipse class="cls-40" cx="346.69" cy="204.74" rx="5.52" ry="3.16" transform="translate(-28 57.36) rotate(-9.09)"/><path class="cls-41" d="M94.09,292.76c24.82,2.25,70.54,15.55,87.5,25.61S218,342.19,239,344.1s57.75-21.26,92.15-25.62,32.49,34.44,4.77,48.11-61.14,8.82-61.14,8.82l-58.3-4.71S112.94,342,94.09,292.76Z"/><path class="cls-42" d="M203.59,386.57c-29.59,1.1-58.58,1-79.21-5.71a126.39,126.39,0,0,1-18.32-7.52c-20.29-10.29-30.67-22.86-35.9-28.2-6.62-6.75-23.43-32.57-2.67-46.28a35,35,0,0,1,11.05-4.71h0c19.82-4.86,43.25,4.72,43.25,4.72s-7.92,2.81,35.91,23.82S207.4,349.93,221,360s32.76,13.71,32.76,13.71S280.16,383.71,203.59,386.57Z"/><path class="cls-43" d="M264.45,372l-3.72,40.28s-64.57.14-77.28.15S132,409.53,124.53,409s-17.23,2.18-22.94,2S84.16,406,83,393.71c-.87-9.06,11.23-16.57,22.33-19.86h0a39.15,39.15,0,0,1,10.81-1.79c11.69.05,37.47,7.55,42.33,8,2.58.23,9.44-1.06,15.22-.6,5.11.4,10,3.14,15.39,3s37.56-10.87,48.08-10.44S264.45,372,264.45,372Z"/><path class="cls-44" d="M387.45,363.86a57.07,57.07,0,0,1-10,16.32h0a66.91,66.91,0,0,1-5.87,5.91c-.62.57-1.25,1.11-1.88,1.64l0,0a108.66,108.66,0,0,1-12.84,9.1c-10.1,6.24-36.2,12.71-57.2,15.57s-85,0-85,0-11.73-15.89,0-36.3c0,0,18.69-5.85,28.71-11s41.73-22.51,54.58-25.39,30.24-16.89,23.27-19.54a93.91,93.91,0,0,1,21.55-2.46A79.79,79.79,0,0,1,358,319.14a60.53,60.53,0,0,1,11.87,3.54C380.59,327.86,394.3,346.71,387.45,363.86Z"/><path class="cls-45" d="M223.36,119c.48,2.24-12.86,13.41-8,19.88,3,3.93,7.76,27.64,24.65,28.93,23,1.74,51.85-31.07,49.5-48.86s-30.7-4.91-29.2-46.07c1.07-29.19-36.16,21.43-36.16,21.43l-3.91,19.34"/><path class="cls-46" d="M256.5,73.63c.07,20.32,2.69,45.58-25,60.26s-32.8-18.09-32.8-18.09l10.86-25.23S256.43,53.32,256.5,73.63Z"/><path class="cls-47" d="M143.64,139.5c-4.65-.11-6.47,4.5-10.55,8.36s-9.86,3.79-16.07,2.86S105.55,149.2,100.3,156c-4.85,6.29-4.15,16.65-1.07,23.79A35.84,35.84,0,0,0,110,193.24s0,.26,0,.74a15.24,15.24,0,0,0-1.82,1.59c-5.07,5.23-5.76,15.69-2.31,20C79.86,201.49,82.9,168.72,92.21,155c6.57-9.72,16.57-11.86,28.86-9.57,11,2,10.78-9.65,22.9-11.3C145,136.13,145.28,139.54,143.64,139.5Z"/><path class="cls-48" d="M295.17,130.49a26.6,26.6,0,0,1-3.3-.42s0,8.35,13.29,13.93c-.71.07-1.4.13-2.09.16-49.4,2.93-46.57-70.53-46.57-70.53L236.45,71.2s-32.15,27.16-17,35.52S235.3,142,223.2,155.57C214.06,165.82,204.73,166.28,195,174c-3.65,2.89-4.15,13.14,6.14,14.14-11.72,6.56-17.71-3-18-3.47v0s-1.83,6.6-15,7.06-16.29,16.15-16.29,16.15-6-9.29,2.29-22.29c-17.71,7.71-31.43-.86-32.86-12a0,0,0,0,0,0,0c4,6,19.42,6.83,22.28-2.74s-8.29-9.85-6.29-25.57,22.86-24.28,19.15-41.42-15.62-36.54-4.86-65c8.86-23.43,32.28-36,48.85-32.15,4.57-7.43,28.92-11.26,46,2.43s23.14,26.86,23.42,44S273,76.28,277.3,83.71s12.35,4.57,18,14.38-3.68,23.41,16.89,23.62C309.84,130.34,300.31,130.87,295.17,130.49Z"/><path class="cls-49" d="M312.16,121.71s-9.27,8.3-19.21-2c-5.68-5.89-2.54-12.71-4.93-17.78s-9.61-5.71-13.7-10.81c-4.93-6.14-7.12-12.6-7.59-21.46-.86-16.2,0-33-6.41-42.49s-11.26-14-21.51-20.74A30.33,30.33,0,0,0,226.2,1.82,39.53,39.53,0,0,0,212.59,2a32.32,32.32,0,0,0-12.15,4.71c4.57-7.43,28.92-11.26,46,2.43s23.14,26.86,23.42,44S273,76.28,277.3,83.71s12.35,4.57,18,14.38S291.59,121.5,312.16,121.71Z"/><path class="cls-47" d="M169,117.72c-4,7.14-13.57,12.57-19.15,23.43s3.43,17.26,3.43,25.42a15.51,15.51,0,0,1-18,15.14c-11.9-1.1-13.88-7.71-14-8.12,4,6,19.42,6.83,22.28-2.74s-8.29-9.85-6.29-25.57,22.86-24.28,19.15-41.42-15.62-36.54-4.86-65c8.86-23.43,32.28-36,48.85-32.15a39.46,39.46,0,0,0-26.57,8.58c-12.14,10-19.14,28.22-18.28,41.28s8,23,13.71,37.38C173.07,103.37,173,110.57,169,117.72Z"/><path class="cls-47" d="M158.47,188.73c-8.24,6.17-6.6,19.13-6.6,19.13s-6-9.29,2.29-22.29c9-5.57,9.86-17.72,9.86-17.72s2.14,1.53,2.71,5.87S166.71,182.57,158.47,188.73Z"/><path class="cls-47" d="M201.16,188.14c-11.72,6.56-17.71-3-18-3.47v0a19.76,19.76,0,0,0,.29-7.5c1.35,4.45,2.21,7.78,7.14,10.07S201.16,188.14,201.16,188.14Z"/><path class="cls-49" d="M305.16,144c-.71.07-14-2.05-20.41-9.38s-4.23-18.52-4.23-18.52,2.35,7.44,5.46,10.44a13,13,0,0,0,5.89,3.53S291.87,138.42,305.16,144Z"/><path class="cls-50" d="M235.16,114.14c-.73.06-11,.72-25.57-12.14-8.47-7.47-14.82-18.13-17-26.61h0c-1.28-5-1.15-9.19.81-11.59A5.31,5.31,0,0,1,195,62.43c14-7.51,21.71-15.57,26.17-34.72a14.29,14.29,0,0,1,1.56-.17c11.06-.48,19.43,14.1,20.66,15.39,0,0,1.21,1.55,2.26,1.2l.1,0c.6-.28,1.37-1.82,1.91-3.54s2.41-3.59,5-2.19,4.35,8.42,3.64,13.28-1.5,6.86.92,15.93C260.2,78.74,257,112.28,235.16,114.14Z"/><path class="cls-46" d="M200.44,66.39c-6.26,4.41-7.86,9-7.86,9h0c-1.28-5-1.15-9.19.81-11.59A5.31,5.31,0,0,1,195,62.43c7.38-3.94,13-8,17.32-13.83C210.12,55.18,206.4,62.2,200.44,66.39Z"/><path class="cls-46" d="M245.67,44.13a4.78,4.78,0,0,1-4.29-.7c-3.08-2.28-5.35-8-9.84-11.85a17.92,17.92,0,0,0-10.35-3.87,14.29,14.29,0,0,1,1.56-.17c11.06-.48,19.43,14.1,20.66,15.39C243.41,42.93,244.62,44.48,245.67,44.13Z"/><path class="cls-47" d="M106.12,373.36l-.06,0c-20.29-10.29-30.67-22.86-35.9-28.2-6.62-6.75-23.43-32.57-2.67-46.28a35,35,0,0,1,11.05-4.71c-.43.28-14.38,5.85-15,19.28s4.69,22.3,15.71,36.29S106.12,373.36,106.12,373.36Z"/><path class="cls-18" d="M387.45,363.86a57.07,57.07,0,0,1-10,16.32h0a66.91,66.91,0,0,1-5.87,5.91A71.26,71.26,0,0,0,384.47,364c4.83-13.75-.36-25.19-9.19-34.53s-32.36-11.63-32.36-11.63A84.56,84.56,0,0,1,358,319.14a60.53,60.53,0,0,1,11.87,3.54C380.59,327.86,394.3,346.71,387.45,363.86Z"/><ellipse class="cls-51" cx="172.21" cy="210.38" rx="14.52" ry="11.28" transform="translate(-57.63 355.61) rotate(-82.98)"/><polygon class="cls-51" points="175.34 222.22 182.72 226.31 180.77 216.27 175.34 222.22"/><path class="cls-52" d="M178.07,202.41l-3.55,3.89,2.92,4.42A7.14,7.14,0,0,0,178.07,202.41Z"/><path class="cls-53" d="M177.44,210.72l-1.77,1.94-1.77,1.94,2.91,4.42A7.12,7.12,0,0,0,177.44,210.72Z"/><path class="cls-54" d="M177.44,210.72a3.9,3.9,0,0,0-6.45-.54h0a3.88,3.88,0,0,1-6.27-.26l2.73,4.13h0a3.91,3.91,0,0,0,6.45.55h0l1.77-1.94Z"/><rect class="cls-54" x="163.67" y="207.7" width="5.25" transform="translate(-99.22 190.59) rotate(-47.63)"/><path class="cls-55" d="M171,210.18h0a3.9,3.9,0,0,1,6.45.54l-2.92-4.42a3.91,3.91,0,0,0-6.46-.54h0l-3.53,3.88h0l.19.27A3.88,3.88,0,0,0,171,210.18Zm-2.54-.31a.82.82,0,0,1-.62-.94c0-.48.38-.85.75-.81a.9.9,0,0,1-.13,1.75Z"/><path class="cls-53" d="M168.57,208.12c-.37,0-.71.33-.75.81a.82.82,0,0,0,.62.94.9.9,0,0,0,.13-1.75Z"/></g></g></svg>